{
  "accessors": [
    {
      "bufferView": 2,
      "componentType": 5126,
      "count": 65532,
      "max": [
        141.28091430664063,
        107.41362762451172,
        487.9822082519531
      ],
      "min": [
        -132.51300048828125,
        -79.09829711914063,
        3.1045749187469482
      ],
      "type": "VEC3"
    },
    {
      "bufferView": 2,
      "byteOffset": 786384,
      "componentType": 5126,
      "count": 65532,
      "max": [
        0.9999409914016724,
        0.9999876618385315,
        0.9999980926513672
      ],
      "min": [
        -0.9999757409095764,
        -0.9999902248382568,
        -1.0
      ],
      "type": "VEC3"
    },
    {
      "bufferView": 1,
      "componentType": 5126,
      "count": 65532,
      "max": [
        0.9980000257492065,
        0.9600499868392944
      ],
      "min": [
        0.001990000018849969,
        0.0019099999917671084
      ],
      "type": "VEC2"
    },
    {
      "bufferView": 0,
      "componentType": 5125,
      "count": 333747,
      "type": "SCALAR"
    },
    {
      "bufferView": 2,
      "byteOffset": 1572768,
      "componentType": 5126,
      "count": 42105,
      "max": [
        141.28091430664063,
        107.25189971923828,
        479.8551940917969
      ],
      "min": [
        -134.09666442871094,
        -79.34223937988281,
        76.28114318847656
      ],
      "type": "VEC3"
    },
    {
      "bufferView": 2,
      "byteOffset": 2078028,
      "componentType": 5126,
      "count": 42105,
      "max": [
        0.9999231100082397,
        0.9999876618385315,
        0.9999969005584717
      ],
      "min": [
        -0.999966025352478,
        -0.9999971389770508,
        -0.9999323487281799
      ],
      "type": "VEC3"
    },
    {
      "bufferView": 1,
      "byteOffset": 524256,
      "componentType": 5126,
      "count": 42105,
      "max": [
        0.9980000257492065,
        0.9603999853134155
      ],
      "min": [
        0.001990000018849969,
        0.0019099999917671084
      ],
      "type": "VEC2"
    },
    {
      "bufferView": 0,
      "byteOffset": 1334988,
      "componentType": 5125,
      "count": 182997,
      "type": "SCALAR"
    }
  ],
  "asset": {
    "extras": {
      "author": "SHINING 3D (https://sketchfab.com/einscan)",
      "license": "CC-BY-NC-4.0 (http://creativecommons.org/licenses/by-nc/4.0/)",
      "source": "https://sketchfab.com/3d-models/einscan-pro-hd-statue-of-guan-gong-6f162db226d14621b8d0f920763b1075",
      "title": "[EinScan Pro HD] Statue of Guan Gong"
    },
    "generator": "Sketchfab-15.36.0",
    "version": "2.0"
  },
  "bufferViews": [
    {
      "buffer": 0,
      "byteLength": 2066976,
      "name": "floatBufferViews",
      "target": 34963
    },
    {
      "buffer": 0,
      "byteLength": 861096,
      "byteOffset": 2066976,
      "byteStride": 8,
      "name": "floatBufferViews",
      "target": 34962
    },
    {
      "buffer": 0,
      "byteLength": 2583288,
      "byteOffset": 2928072,
      "byteStride": 12,
      "name": "floatBufferViews",
      "target": 34962
    }
  ],
  "buffers": [
    {
      "byteLength": 5511360,
      "uri": "scene.bin"
    }
  ],
  "images": [
    {
      "uri": "textures/lambert3SG_baseColor.jpeg"
    }
  ],
  "materials": [
    {
      "doubleSided": true,
      "name": "lambert3SG",
      "pbrMetallicRoughness": {
        "baseColorTexture": {
          "index": 0
        },
        "metallicFactor": 0.0,
        "roughnessFactor": 0.5376393528890384
      }
    }
  ],
  "meshes": [
    {
      "name": "Object_0",
      "primitives": [
        {
          "attributes": {
            "NORMAL": 1,
            "POSITION": 0,
            "TEXCOORD_0": 2
          },
          "indices": 3,
          "material": 0,
          "mode": 4
        }
      ]
    },
    {
      "name": "Object_1",
      "primitives": [
        {
          "attributes": {
            "NORMAL": 5,
            "POSITION": 4,
            "TEXCOORD_0": 6
          },
          "indices": 7,
          "material": 0,
          "mode": 4
        }
      ]
    }
  ],
  "nodes": [
    {
      "children": [
        1
      ],
      "matrix": [
        1.0,
        0.0,
        0.0,
        0.0,
        0.0,
        2.220446049250313e-16,
        -1.0,
        0.0,
        0.0,
        1.0,
        2.220446049250313e-16,
        0.0,
        0.0,
        0.0,
        0.0,
        1.0
      ],
      "name": "Sketchfab_model"
    },
    {
      "children": [
        2,
        3
      ],
      "name": "gg.obj.cleaner.materialmerger.gles"
    },
    {
      "mesh": 0,
      "name": "Object_2"
    },
    {
      "mesh": 1,
      "name": "Object_3"
    }
  ],
  "samplers": [
    {
      "magFilter": 9729,
      "minFilter": 9987,
      "wrapS": 10497,
      "wrapT": 10497
    }
  ],
  "scene": 0,
  "scenes": [
    {
      "name": "Sketchfab_Scene",
      "nodes": [
        0
      ]
    }
  ],
  "textures": [
    {
      "sampler": 0,
      "source": 0
    }
  ]
}
